<?xml version="1.0" standalone="no"?>
<!DOCTYPE svg PUBLIC "-//W3C//DTD SVG 20010904//EN"
 "http://www.w3.org/TR/2001/REC-SVG-20010904/DTD/svg10.dtd">
<svg version="1.0" xmlns="http://www.w3.org/2000/svg" viewBox="0 0 800 800"
 preserveAspectRatio="xMidYMid meet" shape-rendering="crispEdges">
<g transform="translate(0,800) scale(0.1,-0.1)"
fill="#535353" stroke="none">
<path d="M3560 5270 l0 -110 -115 0 -115 0 0 -730 0 -730 -110 0 -110 0 0
-110 0 -110 -165 0 -165 0 0 -105 0 -105 -170 0 -170 0 0 -110 0 -110 -110 0
-110 0 0 -120 0 -120 -220 0 -220 0 0 120 0 120 -110 0 -110 0 0 110 0 110
-115 0 -115 0 0 215 0 215 -110 0 -110 0 0 -660 0 -660 110 0 110 0 0 -110 0
-110 115 0 115 0 0 -120 0 -120 110 0 110 0 0 -110 0 -110 110 0 110 0 0 -110
0 -110 110 0 110 0 0 -445 0 -445 225 0 225 0 0 110 0 110 -115 0 -115 0 0
120 0 120 115 0 115 0 0 110 0 110 110 0 110 0 0 105 0 105 110 0 110 0 0
-105 0 -105 110 0 110 0 0 -340 0 -340 225 0 225 0 0 110 0 110 -110 0 -110 0
0 445 0 445 110 0 110 0 0 110 0 110 110 0 110 0 0 175 0 175 110 0 110 0 0
390 0 390 110 0 110 0 0 -120 0 -120 115 0 115 0 0 230 0 230 -225 0 -225 0 0
215 0 215 445 0 445 0 0 110 0 110 -335 0 -335 0 0 120 0 120 560 0 560 0 0
500 0 500 -115 0 -115 0 0 110 0 110 -885 0 -885 0 0 -110z m440 -340 l0 -120
-110 0 -110 0 0 120 0 120 110 0 110 0 0 -120z"/>
<path d="M0 1430 l0 -50 890 0 890 0 0 50 0 50 -890 0 -890 0 0 -50z"/>
<path d="M4000 1430 l0 -50 2000 0 2000 0 0 50 0 50 -2000 0 -2000 0 0 -50z"/>
<path d="M6110 1105 l0 -55 165 0 165 0 0 55 0 55 -165 0 -165 0 0 -55z"/>
<path d="M670 985 l0 -65 220 0 220 0 0 65 0 65 -220 0 -220 0 0 -65z"/>
<path d="M0 645 l0 -55 220 0 220 0 0 55 0 55 -220 0 -220 0 0 -55z"/>
<path d="M1560 645 l0 -55 110 0 110 0 0 55 0 55 -110 0 -110 0 0 -55z"/>
<path d="M5330 645 l0 -55 225 0 225 0 0 55 0 55 -225 0 -225 0 0 -55z"/>
<path d="M7250 645 l0 -55 150 0 150 0 0 55 0 55 -150 0 -150 0 0 -55z"/>
</g>
</svg>
