<svg xmlns="http://www.w3.org/2000/svg" xmlns:xlink="http://www.w3.org/1999/xlink" width="128pt" height="128pt" viewBox="0 0 128 128" version="1.1" shape-rendering="crispEdges">
<g fill="#535353" stroke="none">
<path style=" stroke:none;fill-rule:nonzero;fill:rgb(32.54902%,32.54902%,32.54902%);fill-opacity:1;" d="M 56.960938 43.679688 L 56.960938 45.441406 L 53.28125 45.441406 L 53.28125 68.800781 L 49.761719 68.800781 L 49.761719 72.320312 L 44.480469 72.320312 L 44.480469 75.679688 L 39.039062 75.679688 L 39.039062 79.199219 L 35.519531 79.199219 L 35.519531 83.039062 L 28.480469 83.039062 L 28.480469 79.199219 L 24.960938 79.199219 L 24.960938 75.679688 L 21.28125 75.679688 L 21.28125 68.800781 L 17.761719 68.800781 L 17.761719 89.921875 L 21.28125 89.921875 L 21.28125 93.441406 L 24.960938 93.441406 L 24.960938 97.28125 L 28.480469 97.28125 L 28.480469 100.800781 L 32 100.800781 L 32 104.320312 L 35.519531 104.320312 L 35.519531 118.558594 L 42.71875 118.558594 L 42.71875 115.039062 L 39.039062 115.039062 L 39.039062 111.199219 L 42.71875 111.199219 L 42.71875 107.679688 L 46.238281 107.679688 L 46.238281 104.320312 L 49.761719 104.320312 L 49.761719 107.679688 L 53.28125 107.679688 L 53.28125 118.558594 L 60.480469 118.558594 L 60.480469 115.039062 L 56.960938 115.039062 L 56.960938 100.800781 L 60.480469 100.800781 L 60.480469 97.28125 L 64 97.28125 L 64 91.679688 L 67.519531 91.679688 L 67.519531 79.199219 L 71.039062 79.199219 L 71.039062 83.039062 L 74.71875 83.039062 L 74.71875 75.679688 L 67.519531 75.679688 L 67.519531 68.800781 L 81.761719 68.800781 L 81.761719 65.28125 L 71.039062 65.28125 L 71.039062 61.441406 L 88.960938 61.441406 L 88.960938 45.441406 L 85.28125 45.441406 L 85.28125 41.921875 L 56.960938 41.921875 Z M 64 49.121094 L 64 51.039062 L 60.480469 51.039062 L 60.480469 47.199219 L 64 47.199219 Z M 64 49.121094 "/>
<path style=" stroke:none;fill-rule:nonzero;fill:rgb(32.54902%,32.54902%,32.54902%);fill-opacity:1;" d="M 0 105.121094 L 0 105.921875 L 28.480469 105.921875 L 28.480469 104.320312 L 0 104.320312 Z M 0 105.121094 "/>
<path style=" stroke:none;fill-rule:nonzero;fill:rgb(32.54902%,32.54902%,32.54902%);fill-opacity:1;" d="M 64 105.121094 L 64 105.921875 L 128 105.921875 L 128 104.320312 L 64 104.320312 Z M 64 105.121094 "/>
<path style=" stroke:none;fill-rule:nonzero;fill:rgb(32.54902%,32.54902%,32.54902%);fill-opacity:1;" d="M 97.761719 110.320312 L 97.761719 111.199219 L 103.039062 111.199219 L 103.039062 109.441406 L 97.761719 109.441406 Z M 97.761719 110.320312 "/>
<path style=" stroke:none;fill-rule:nonzero;fill:rgb(32.54902%,32.54902%,32.54902%);fill-opacity:1;" d="M 10.71875 112.238281 L 10.71875 113.28125 L 17.761719 113.28125 L 17.761719 111.199219 L 10.71875 111.199219 Z M 10.71875 112.238281 "/>
<path style=" stroke:none;fill-rule:nonzero;fill:rgb(32.54902%,32.54902%,32.54902%);fill-opacity:1;" d="M 0 117.679688 L 0 118.558594 L 7.039062 118.558594 L 7.039062 116.800781 L 0 116.800781 Z M 0 117.679688 "/>
<path style=" stroke:none;fill-rule:nonzero;fill:rgb(32.54902%,32.54902%,32.54902%);fill-opacity:1;" d="M 24.960938 117.679688 L 24.960938 118.558594 L 28.480469 118.558594 L 28.480469 116.800781 L 24.960938 116.800781 Z M 24.960938 117.679688 "/>
<path style=" stroke:none;fill-rule:nonzero;fill:rgb(32.54902%,32.54902%,32.54902%);fill-opacity:1;" d="M 85.28125 117.679688 L 85.28125 118.558594 L 92.480469 118.558594 L 92.480469 116.800781 L 85.28125 116.800781 Z M 85.28125 117.679688 "/>
<path style=" stroke:none;fill-rule:nonzero;fill:rgb(32.54902%,32.54902%,32.54902%);fill-opacity:1;" d="M 116 117.679688 L 116 118.558594 L 120.800781 118.558594 L 120.800781 116.800781 L 116 116.800781 Z M 116 117.679688 "/>
</g>
</svg>
