<svg xmlns="http://www.w3.org/2000/svg" xmlns:xlink="http://www.w3.org/1999/xlink" width="250pt" height="55pt" viewBox="0 0 250 55" version="1.1" shape-rendering="crispEdges">
<g>
<path style=" stroke:none;fill-rule:nonzero;fill:#535353;fill-opacity:1;" d="M 40.488281 1.714844 L 40.488281 2.960938 L 37.894531 2.960938 L 37.894531 19.46875 L 35.410156 19.46875 L 35.410156 21.957031 L 31.6875 21.957031 L 31.6875 24.332031 L 27.847656 24.332031 L 27.847656 26.820312 L 25.367188 26.820312 L 25.367188 29.53125 L 20.398438 29.53125 L 20.398438 26.820312 L 17.917969 26.820312 L 17.917969 24.332031 L 15.320312 24.332031 L 15.320312 19.46875 L 12.839844 19.46875 L 12.839844 34.394531 L 15.320312 34.394531 L 15.320312 36.882812 L 17.917969 36.882812 L 17.917969 39.597656 L 20.398438 39.597656 L 20.398438 42.082031 L 22.882812 42.082031 L 22.882812 44.570312 L 25.367188 44.570312 L 25.367188 54.636719 L 30.445312 54.636719 L 30.445312 52.148438 L 27.847656 52.148438 L 27.847656 49.433594 L 30.445312 49.433594 L 30.445312 46.945312 L 32.925781 46.945312 L 32.925781 44.570312 L 35.410156 44.570312 L 35.410156 46.945312 L 37.894531 46.945312 L 37.894531 54.636719 L 42.972656 54.636719 L 42.972656 52.148438 L 40.488281 52.148438 L 40.488281 42.082031 L 42.972656 42.082031 L 42.972656 39.597656 L 45.453125 39.597656 L 45.453125 35.636719 L 47.9375 35.636719 L 47.9375 26.820312 L 50.421875 26.820312 L 50.421875 29.53125 L 53.015625 29.53125 L 53.015625 24.332031 L 47.9375 24.332031 L 47.9375 19.46875 L 57.980469 19.46875 L 57.980469 16.980469 L 50.421875 16.980469 L 50.421875 14.265625 L 63.0625 14.265625 L 63.0625 2.960938 L 60.464844 2.960938 L 60.464844 0.472656 L 40.488281 0.472656 Z M 45.453125 5.558594 L 45.453125 6.917969 L 42.972656 6.917969 L 42.972656 4.203125 L 45.453125 4.203125 Z M 45.453125 5.558594 "/>
<path style=" stroke:none;fill-rule:nonzero;fill:#535353;fill-opacity:1;" d="M 0.3125 45.136719 L 0.3125 45.703125 L 20.398438 45.703125 L 20.398438 44.570312 L 0.3125 44.570312 Z M 0.3125 45.136719 "/>
<path style=" stroke:none;fill-rule:nonzero;fill:#535353;fill-opacity:1;" d="M 45.453125 45.136719 L 45.453125 45.703125 L 248.988281 45.703125 L 248.988281 44.570312 L 45.453125 44.570312 Z M 45.453125 45.136719 "/>
<path style=" stroke:none;fill-rule:nonzero;fill:#535353;fill-opacity:1;" d="M 74.523438 48.8125 L 74.523438 49.433594 L 78.25 49.433594 L 78.25 48.191406 L 74.523438 48.191406 Z M 74.523438 48.8125 "/>
<path style=" stroke:none;fill-rule:nonzero;fill:#535353;fill-opacity:1;" d="M 7.871094 50.167969 L 7.871094 50.902344 L 12.839844 50.902344 L 12.839844 49.433594 L 7.871094 49.433594 Z M 7.871094 50.167969 "/>
<path style=" stroke:none;fill-rule:nonzero;fill:#535353;fill-opacity:1;" d="M 0.3125 54.011719 L 0.3125 54.636719 L 5.277344 54.636719 L 5.277344 53.390625 L 0.3125 53.390625 Z M 0.3125 54.011719 "/>
<path style=" stroke:none;fill-rule:nonzero;fill:#535353;fill-opacity:1;" d="M 17.917969 54.011719 L 17.917969 54.636719 L 20.398438 54.636719 L 20.398438 53.390625 L 17.917969 53.390625 Z M 17.917969 54.011719 "/>
<path style=" stroke:none;fill-rule:nonzero;fill:#535353;fill-opacity:1;" d="M 60.464844 54.011719 L 60.464844 54.636719 L 65.542969 54.636719 L 65.542969 53.390625 L 60.464844 53.390625 Z M 60.464844 54.011719 "/>
<path style=" stroke:none;fill-rule:nonzero;fill:#535353;fill-opacity:1;" d="M 84.917969 54.011719 L 84.917969 54.636719 L 88.304688 54.636719 L 88.304688 53.390625 L 84.917969 53.390625 Z M 84.917969 54.011719 "/>
<path style=" stroke:none;fill-rule:nonzero;fill:#535353;fill-opacity:1;" d="M 136.796875 48.8125 L 136.796875 49.433594 L 140.519531 49.433594 L 140.519531 48.191406 L 136.796875 48.191406 Z M 136.796875 48.8125 "/>
<path style=" stroke:none;fill-rule:nonzero;fill:#535353;fill-opacity:1;" d="M 118.496094 54.011719 L 118.496094 54.636719 L 123.574219 54.636719 L 123.574219 53.390625 L 118.496094 53.390625 Z M 118.496094 54.011719 "/>
<path style=" stroke:none;fill-rule:nonzero;fill:#535353;fill-opacity:1;" d="M 149.664062 54.011719 L 149.664062 54.636719 L 153.046875 54.636719 L 153.046875 53.390625 L 149.664062 53.390625 Z M 149.664062 54.011719 "/>
<path style=" stroke:none;fill-rule:nonzero;fill:#535353;fill-opacity:1;" d="M 105.730469 54.011719 L 105.730469 54.636719 L 108.210938 54.636719 L 108.210938 53.390625 L 105.730469 53.390625 Z M 105.730469 54.011719 "/>
<path style=" stroke:none;fill-rule:nonzero;fill:#535353;fill-opacity:1;" d="M 174.363281 50.867188 L 174.363281 51.605469 L 179.328125 51.605469 L 179.328125 50.132812 L 174.363281 50.132812 Z M 174.363281 50.867188 "/>
<path style=" stroke:none;fill-rule:nonzero;fill:#535353;fill-opacity:1;" d="M 99.035156 50.210938 L 99.035156 50.835938 L 102.757812 50.835938 L 102.757812 49.589844 L 99.035156 49.589844 Z M 99.035156 50.210938 "/>
<path style=" stroke:none;fill-rule:nonzero;fill:#535353;fill-opacity:1;" d="M 166.765625 54.011719 L 166.765625 54.636719 L 171.84375 54.636719 L 171.84375 53.390625 L 166.765625 53.390625 Z M 166.765625 54.011719 "/>
<path style=" stroke:none;fill-rule:nonzero;fill:#535353;fill-opacity:1;" d="M 191.214844 54.011719 L 191.214844 54.636719 L 194.601562 54.636719 L 194.601562 53.390625 L 191.214844 53.390625 Z M 191.214844 54.011719 "/>
<path style=" stroke:none;fill-rule:nonzero;fill:#535353;fill-opacity:1;" d="M 224.792969 54.011719 L 224.792969 54.636719 L 229.871094 54.636719 L 229.871094 53.390625 L 224.792969 53.390625 Z M 224.792969 54.011719 "/>
<path style=" stroke:none;fill-rule:nonzero;fill:#535353;fill-opacity:1;" d="M 212.027344 54.011719 L 212.027344 54.636719 L 214.511719 54.636719 L 214.511719 53.390625 L 212.027344 53.390625 Z M 212.027344 54.011719 "/>
<path style=" stroke:none;fill-rule:nonzero;fill:#535353;fill-opacity:1;" d="M 199.734375 48.8125 L 199.734375 49.433594 L 203.457031 49.433594 L 203.457031 48.191406 L 199.734375 48.191406 Z M 199.734375 48.8125 "/>
</g>
</svg>
