<svg xmlns="http://www.w3.org/2000/svg" xmlns:xlink="http://www.w3.org/1999/xlink" width="32pt" height="32pt" viewBox="0 0 32 32" version="1.1" shape-rendering="crispEdges">
<g fill="#535353" stroke="none">
<path style=" stroke:none;fill-rule:nonzero;fill:rgb(32.54902%,32.54902%,32.54902%);fill-opacity:1;" d="M 14.238281 10.921875 L 14.238281 11.359375 L 13.320312 11.359375 L 13.320312 17.199219 L 12.441406 17.199219 L 12.441406 18.078125 L 11.121094 18.078125 L 11.121094 18.921875 L 9.761719 18.921875 L 9.761719 19.800781 L 8.878906 19.800781 L 8.878906 20.761719 L 7.121094 20.761719 L 7.121094 19.800781 L 6.238281 19.800781 L 6.238281 18.921875 L 5.320312 18.921875 L 5.320312 17.199219 L 4.441406 17.199219 L 4.441406 22.480469 L 5.320312 22.480469 L 5.320312 23.359375 L 6.238281 23.359375 L 6.238281 24.320312 L 7.121094 24.320312 L 7.121094 25.199219 L 8 25.199219 L 8 26.078125 L 8.878906 26.078125 L 8.878906 29.640625 L 10.679688 29.640625 L 10.679688 28.761719 L 9.761719 28.761719 L 9.761719 27.800781 L 10.679688 27.800781 L 10.679688 26.921875 L 11.558594 26.921875 L 11.558594 26.078125 L 12.441406 26.078125 L 12.441406 26.921875 L 13.320312 26.921875 L 13.320312 29.640625 L 15.121094 29.640625 L 15.121094 28.761719 L 14.238281 28.761719 L 14.238281 25.199219 L 15.121094 25.199219 L 15.121094 24.320312 L 16 24.320312 L 16 22.921875 L 16.878906 22.921875 L 16.878906 19.800781 L 17.761719 19.800781 L 17.761719 20.761719 L 18.679688 20.761719 L 18.679688 18.921875 L 16.878906 18.921875 L 16.878906 17.199219 L 20.441406 17.199219 L 20.441406 16.320312 L 17.761719 16.320312 L 17.761719 15.359375 L 22.238281 15.359375 L 22.238281 11.359375 L 21.320312 11.359375 L 21.320312 10.480469 L 14.238281 10.480469 Z M 16 12.28125 L 16 12.761719 L 15.121094 12.761719 L 15.121094 11.800781 L 16 11.800781 Z M 16 12.28125 "/>
<path style=" stroke:none;fill-rule:nonzero;fill:rgb(32.54902%,32.54902%,32.54902%);fill-opacity:1;" d="M 0 26.28125 L 0 26.480469 L 7.121094 26.480469 L 7.121094 26.078125 L 0 26.078125 Z M 0 26.28125 "/>
<path style=" stroke:none;fill-rule:nonzero;fill:rgb(32.54902%,32.54902%,32.54902%);fill-opacity:1;" d="M 16 26.28125 L 16 26.480469 L 32 26.480469 L 32 26.078125 L 16 26.078125 Z M 16 26.28125 "/>
<path style=" stroke:none;fill-rule:nonzero;fill:rgb(32.54902%,32.54902%,32.54902%);fill-opacity:1;" d="M 24.441406 27.578125 L 24.441406 27.800781 L 25.761719 27.800781 L 25.761719 27.359375 L 24.441406 27.359375 Z M 24.441406 27.578125 "/>
<path style=" stroke:none;fill-rule:nonzero;fill:rgb(32.54902%,32.54902%,32.54902%);fill-opacity:1;" d="M 2.679688 28.058594 L 2.679688 28.320312 L 4.441406 28.320312 L 4.441406 27.800781 L 2.679688 27.800781 Z M 2.679688 28.058594 "/>
<path style=" stroke:none;fill-rule:nonzero;fill:rgb(32.54902%,32.54902%,32.54902%);fill-opacity:1;" d="M 0 29.421875 L 0 29.640625 L 1.761719 29.640625 L 1.761719 29.199219 L 0 29.199219 Z M 0 29.421875 "/>
<path style=" stroke:none;fill-rule:nonzero;fill:rgb(32.54902%,32.54902%,32.54902%);fill-opacity:1;" d="M 6.238281 29.421875 L 6.238281 29.640625 L 7.121094 29.640625 L 7.121094 29.199219 L 6.238281 29.199219 Z M 6.238281 29.421875 "/>
<path style=" stroke:none;fill-rule:nonzero;fill:rgb(32.54902%,32.54902%,32.54902%);fill-opacity:1;" d="M 21.320312 29.421875 L 21.320312 29.640625 L 23.121094 29.640625 L 23.121094 29.199219 L 21.320312 29.199219 Z M 21.320312 29.421875 "/>
<path style=" stroke:none;fill-rule:nonzero;fill:rgb(32.54902%,32.54902%,32.54902%);fill-opacity:1;" d="M 29 29.421875 L 29 29.640625 L 30.199219 29.640625 L 30.199219 29.199219 L 29 29.199219 Z M 29 29.421875 "/>
</g>
</svg>
